<svg width="125" height="125" viewBox="0 0 125 125" fill="none" xmlns="http://www.w3.org/2000/svg">
<path d="M54.2026 16.9189C53.9722 16.9537 53.7619 16.9022 53.5716 16.7643C53.3808 16.6236 53.2678 16.4367 53.2327 16.2035C53.1979 15.9732 53.2511 15.764 53.3922 15.576C53.5329 15.3853 53.7185 15.2725 53.9488 15.2377C54.1792 15.2029 54.3897 15.2559 54.5805 15.3966C54.7708 15.5345 54.8833 15.7186 54.9181 15.9489C54.9414 16.1034 54.9235 16.2512 54.8643 16.3923C54.8076 16.5302 54.7217 16.6466 54.6067 16.7415C54.4918 16.8365 54.3571 16.8956 54.2026 16.9189Z" fill="white"/>
<path d="M34.8964 20.2004L36.7697 23.6055L35.6535 24.2201L32.4986 18.4851L33.57 17.8953L34.0835 18.8287L34.1544 18.7897C34.1192 18.4134 34.1916 18.0557 34.3715 17.7167C34.5538 17.3763 34.8603 17.0876 35.2908 16.8505C35.6816 16.6354 36.0689 16.5292 36.453 16.5318C36.8356 16.5319 37.1962 16.648 37.5346 16.88C37.873 17.112 38.1723 17.4645 38.4325 17.9374L40.4392 21.5852L39.323 22.1998L37.3902 18.6864C37.1616 18.2707 36.8746 18.0055 36.5294 17.8907C36.1828 17.7734 35.8203 17.8189 35.4421 18.0272C35.1832 18.1697 34.9839 18.3524 34.8439 18.5754C34.7064 18.7971 34.6388 19.0483 34.6409 19.3293C34.6442 19.6064 34.7294 19.8968 34.8964 20.2004Z" fill="white"/>
<path d="M23.5842 36.4502L17.3662 33.6431L18.2244 32.6445L22.7048 34.8059L22.7465 34.7574L19.9408 30.6471L20.799 29.6484L25.2605 31.7992L25.3021 31.7507L22.5043 27.664L23.3625 26.6653L27.0725 32.3908L26.2254 33.3766L21.7759 31.3035L21.712 31.3778L24.4285 35.4677L23.5842 36.4502Z" fill="white"/>
<path d="M18.373 48.372C18.162 48.9482 17.8458 49.4027 17.4244 49.7354C17.003 50.068 16.5115 50.2661 15.9497 50.3295C15.388 50.3928 14.7897 50.3082 14.1549 50.0755C13.5174 49.8418 13.0034 49.5188 12.6129 49.1063C12.2224 48.6939 11.9737 48.2245 11.867 47.6983C11.7602 47.172 11.8123 46.6207 12.0234 46.0445C12.2344 45.4683 12.5506 45.0139 12.972 44.6812C13.3934 44.3485 13.8863 44.151 14.4507 44.0886C15.0151 44.0261 15.616 44.1118 16.2535 44.3455C16.8884 44.5782 17.3997 44.9002 17.7875 45.3117C18.1754 45.7231 18.4227 46.192 18.5294 46.7183C18.6362 47.2446 18.5841 47.7958 18.373 48.372ZM17.3702 47.9999C17.507 47.6264 17.5217 47.2808 17.4142 46.963C17.3067 46.6453 17.1104 46.3676 16.8253 46.1299C16.5412 45.8896 16.2017 45.6971 15.8069 45.5524C15.4148 45.4087 15.0328 45.3367 14.6607 45.3365C14.287 45.3326 13.9551 45.4168 13.6652 45.5888C13.3752 45.7609 13.1619 46.0337 13.0251 46.4072C12.8873 46.7833 12.873 47.1321 12.9822 47.4535C13.0924 47.7723 13.2909 48.0523 13.5777 48.2936C13.8628 48.5312 14.2014 48.7219 14.5935 48.8656C14.9882 49.0103 15.3711 49.0841 15.7422 49.087C16.1143 49.0872 16.4439 49.0008 16.7312 48.8277C17.0195 48.652 17.2325 48.376 17.3702 47.9999Z" fill="white"/>
<path d="M16.2587 62.8057C16.236 63.3336 16.0809 63.7989 15.7935 64.2017C15.5033 64.6015 15.1019 64.9084 14.5894 65.1224C14.0742 65.3334 13.4632 65.4237 12.7565 65.3932C12.0498 65.3628 11.4503 65.219 10.958 64.9618C10.4659 64.7018 10.0954 64.3588 9.8464 63.9329C9.59742 63.5071 9.48422 63.0316 9.50681 62.5065C9.52426 62.1006 9.60642 61.7772 9.75328 61.5361C9.89742 61.2921 10.0618 61.1058 10.2465 60.9772C10.4313 60.8459 10.5935 60.7448 10.733 60.674L10.7363 60.5974L7.49639 60.4579L7.55113 59.185L16.2703 59.5603L16.2169 60.8034L15.1993 60.7596L15.1948 60.8661C15.3305 60.9487 15.4847 61.0662 15.6573 61.2187C15.83 61.3683 15.9777 61.5708 16.1004 61.8264C16.223 62.0819 16.2758 62.4083 16.2587 62.8057ZM15.1852 62.4779C15.2009 62.1118 15.1177 61.7983 14.9356 61.5374C14.7507 61.2735 14.488 61.0688 14.1473 60.9233C13.8068 60.775 13.4066 60.691 12.9468 60.6712C12.4927 60.6517 12.0925 60.6998 11.7463 60.8157C11.4001 60.9316 11.1265 61.1118 10.9254 61.3562C10.7244 61.6006 10.6159 61.9088 10.5999 62.2806C10.5834 62.6637 10.669 62.9873 10.8567 63.2513C11.0444 63.5153 11.3072 63.72 11.645 63.8653C11.9829 64.0078 12.3676 64.0884 12.799 64.107C13.2361 64.1258 13.632 64.0774 13.9868 63.9619C14.3415 63.8463 14.6265 63.6652 14.8419 63.4186C15.0545 63.169 15.1689 62.8554 15.1852 62.4779Z" fill="white"/>
<path d="M10.144 78.9025L18.4579 76.2484L18.8451 77.4623L10.5312 80.1164L10.144 78.9025Z" fill="white"/>
<path d="M12.6387 85.2244L20.5584 81.5577L21.0934 82.7141L13.1737 86.3808L12.6387 85.2244Z" fill="white"/>
<path d="M26.896 91.3648C27.2657 91.8545 27.4762 92.3667 27.5273 92.9013C27.5785 93.4358 27.4786 93.9564 27.2275 94.4631C26.9763 94.9697 26.5811 95.4268 26.0416 95.8344C25.4999 96.2438 24.95 96.5008 24.3919 96.6056C23.8338 96.7103 23.3048 96.665 22.8048 96.4695C22.3048 96.274 21.8699 95.9314 21.5002 95.4416C21.1304 94.9519 20.92 94.4397 20.8688 93.9052C20.8176 93.3706 20.9187 92.8491 21.1721 92.3408C21.4255 91.8324 21.823 91.3736 22.3647 90.9643C22.9042 90.5567 23.4518 90.3013 24.0077 90.1983C24.5635 90.0952 25.0914 90.1414 25.5914 90.3369C26.0913 90.5324 26.5262 90.875 26.896 91.3648ZM26.04 92.0062C25.8003 91.6887 25.5179 91.4891 25.1927 91.4072C24.8675 91.3254 24.5278 91.3399 24.1737 91.4508C23.8179 91.5594 23.4722 91.7405 23.1368 91.9939C22.8036 92.2457 22.5361 92.5279 22.3343 92.8406C22.1286 93.1527 22.0194 93.4773 22.0069 93.8143C21.9944 94.1514 22.108 94.4786 22.3476 94.796C22.589 95.1157 22.8742 95.3168 23.2034 95.3992C23.5309 95.4793 23.8737 95.4642 24.2318 95.3539C24.5859 95.243 24.9296 95.0617 25.2628 94.8099C25.5982 94.5565 25.8677 94.2745 26.0712 93.9641C26.273 93.6514 26.379 93.3274 26.3892 92.9921C26.3978 92.6545 26.2813 92.3259 26.04 92.0062Z" fill="white"/>
<path d="M35.5676 99.5977L31.4703 104.702L30.5102 103.931L31.1611 103.12L31.1079 103.077C30.7944 103.277 30.4571 103.362 30.0961 103.33C29.7311 103.299 29.3991 103.164 29.1001 102.924C29.0381 102.874 28.9668 102.813 28.8861 102.741C28.8033 102.667 28.7402 102.607 28.6968 102.561L29.4597 101.611C29.4907 101.654 29.5518 101.723 29.643 101.818C29.7325 101.916 29.8281 102.005 29.93 102.087C30.1648 102.276 30.4141 102.394 30.6779 102.442C30.9378 102.49 31.1911 102.47 31.4379 102.38C31.6829 102.293 31.8943 102.138 32.0722 101.917L34.5743 98.7997L35.5676 99.5977Z" fill="white"/>
<path d="M44.3533 104.26C44.927 104.529 45.3601 104.89 45.6526 105.344C45.9414 105.8 46.0886 106.309 46.0943 106.874C46.1 107.438 45.9637 108.017 45.6855 108.611C45.4037 109.213 45.0418 109.692 44.5998 110.046C44.1566 110.403 43.6684 110.615 43.1351 110.682C42.6019 110.75 42.0561 110.652 41.4979 110.391C41.0476 110.18 40.6855 109.908 40.4113 109.576C40.1359 109.246 39.96 108.881 39.8836 108.482C39.8047 108.081 39.838 107.671 39.9835 107.253L41.1064 107.779C41.0381 108.086 41.0676 108.392 41.1949 108.696C41.3196 108.999 41.5659 109.237 41.9338 109.409C42.2554 109.56 42.5768 109.607 42.8981 109.55C43.2157 109.495 43.5142 109.343 43.7937 109.095C44.072 108.848 44.3099 108.514 44.5074 108.092C44.7098 107.66 44.8188 107.256 44.8345 106.881C44.8503 106.506 44.7788 106.176 44.6203 105.891C44.4591 105.606 44.2152 105.386 43.8885 105.233C43.6698 105.131 43.4531 105.078 43.2382 105.074C43.0196 105.072 42.8143 105.119 42.6223 105.214C42.4278 105.308 42.2561 105.45 42.1072 105.641L40.9843 105.115C41.2049 104.751 41.4899 104.467 41.8391 104.264C42.1884 104.06 42.5784 103.954 43.0089 103.946C43.4369 103.936 43.885 104.041 44.3533 104.26Z" fill="white"/>
<path d="M53.3203 112.114L54.493 112.098C54.517 112.251 54.5701 112.402 54.6525 112.551C54.732 112.699 54.8519 112.829 55.012 112.942C55.1722 113.054 55.3827 113.132 55.6435 113.174C55.9996 113.232 56.3098 113.2 56.5741 113.079C56.838 112.961 56.9902 112.777 57.0307 112.527C57.0658 112.312 57.0142 112.125 56.8757 111.967C56.7373 111.809 56.4969 111.659 56.1544 111.517L55.1664 111.115C54.5943 110.881 54.1856 110.597 53.9405 110.263C53.6953 109.93 53.6099 109.535 53.6841 109.078C53.747 108.691 53.9152 108.364 54.1887 108.098C54.459 107.834 54.8071 107.648 55.2331 107.542C55.6563 107.435 56.1286 107.424 56.6502 107.509C57.3736 107.627 57.9388 107.877 58.3458 108.26C58.7523 108.645 58.9609 109.133 58.9718 109.722L57.7261 109.709C57.7019 109.38 57.5852 109.115 57.3761 108.914C57.1665 108.716 56.8725 108.586 56.4939 108.524C56.0817 108.457 55.7383 108.489 55.4638 108.62C55.1888 108.754 55.031 108.946 54.9904 109.195C54.9576 109.397 55.0058 109.579 55.1349 109.741C55.2612 109.903 55.4729 110.043 55.7699 110.164L56.8246 110.581C57.4051 110.817 57.8154 111.108 58.0555 111.455C58.2928 111.802 58.374 112.205 58.2993 112.665C58.2374 113.046 58.0766 113.362 57.817 113.614C57.5574 113.865 57.2268 114.04 56.8251 114.139C56.4229 114.24 55.9792 114.252 55.4941 114.173C54.7959 114.059 54.2709 113.819 53.9191 113.451C53.5669 113.085 53.3673 112.64 53.3203 112.114Z" fill="white"/>
<path d="M71.1168 106.946C71.3462 106.905 71.5578 106.951 71.7517 107.084C71.9462 107.219 72.0641 107.403 72.1055 107.635C72.1464 107.864 72.0989 108.075 71.9628 108.267C71.8272 108.461 71.6448 108.579 71.4155 108.62C71.1861 108.661 70.9742 108.613 70.7798 108.478C70.5859 108.345 70.4684 108.164 70.4275 107.935C70.4001 107.781 70.414 107.633 70.4694 107.49C70.5224 107.351 70.6052 107.232 70.7175 107.134C70.8299 107.036 70.963 106.973 71.1168 106.946Z" fill="white"/>
<path d="M90.3287 103.148L88.365 99.7939L89.4644 99.1498L92.7716 104.798L91.7164 105.417L91.1781 104.497L91.1082 104.538C91.1535 104.913 91.0907 105.273 90.9199 105.617C90.7467 105.962 90.4481 106.259 90.0241 106.507C89.6392 106.732 89.2548 106.849 88.8709 106.857C88.4883 106.867 88.1248 106.76 87.7803 106.538C87.4359 106.315 87.1272 105.97 86.8545 105.505L84.7509 101.912L85.8502 101.268L87.8763 104.728C88.116 105.137 88.41 105.395 88.7582 105.5C89.1078 105.608 89.4689 105.553 89.8414 105.335C90.0963 105.185 90.2908 104.997 90.4247 104.771C90.5562 104.546 90.6171 104.293 90.6074 104.012C90.5967 103.735 90.5038 103.447 90.3287 103.148Z" fill="white"/>
<path d="M101.202 86.6027L107.493 89.2424L106.661 90.2636L102.125 88.2229L102.084 88.2725L104.999 92.3062L104.168 93.3275L99.6505 91.2969L99.6101 91.3465L102.516 95.3568L101.685 96.3781L97.8232 90.7539L98.6436 89.7459L103.147 91.6991L103.209 91.6231L100.384 87.6074L101.202 86.6027Z" fill="white"/>
<path d="M106.092 74.5465C106.288 73.9648 106.591 73.5021 107.004 73.1582C107.416 72.8144 107.902 72.6033 108.462 72.5249C109.022 72.4465 109.622 72.5151 110.263 72.7307C110.907 72.9472 111.429 73.2564 111.83 73.6582C112.232 74.0601 112.493 74.5226 112.614 75.0458C112.735 75.5691 112.697 76.1215 112.502 76.7032C112.306 77.2848 112.002 77.7475 111.59 78.0914C111.177 78.4352 110.69 78.6459 110.128 78.7234C109.565 78.8009 108.962 78.7314 108.318 78.5148C107.678 78.2992 107.158 77.9909 106.759 77.59C106.36 77.1891 106.101 76.727 105.98 76.2038C105.859 75.6805 105.896 75.1281 106.092 74.5465ZM107.104 74.8916C106.978 75.2686 106.972 75.6145 107.088 75.9293C107.204 76.244 107.408 76.5164 107.699 76.7463C107.99 76.9789 108.334 77.1623 108.733 77.2963C109.128 77.4295 109.512 77.4912 109.884 77.4815C110.258 77.4754 110.587 77.3824 110.873 77.2026C111.158 77.0228 111.364 76.7444 111.491 76.3674C111.618 75.9878 111.623 75.6387 111.505 75.3204C111.387 75.0047 111.181 74.7301 110.888 74.4965C110.596 74.2666 110.253 74.0851 109.857 73.9519C109.458 73.8178 109.074 73.7543 108.703 73.7613C108.331 73.7711 108.004 73.8663 107.721 74.047C107.438 74.2304 107.232 74.5119 107.104 74.8916Z" fill="white"/>
<path d="M107.82 60.0605C107.829 59.5322 107.971 59.0628 108.248 58.6525C108.527 58.2451 108.92 57.9275 109.427 57.6999C109.936 57.4752 110.545 57.3686 111.252 57.3801C111.959 57.3916 112.562 57.5193 113.061 57.7633C113.56 58.01 113.94 58.343 114.2 58.762C114.46 59.1811 114.586 59.6533 114.578 60.1788C114.571 60.585 114.497 60.9106 114.357 61.1555C114.22 61.4033 114.06 61.5939 113.879 61.7274C113.698 61.8636 113.538 61.969 113.401 62.0435L113.4 62.1202L116.642 62.1729L116.621 63.4469L107.895 63.3051L107.915 62.0609L108.934 62.0775L108.936 61.9709C108.798 61.892 108.64 61.7786 108.464 61.6308C108.287 61.4859 108.134 61.2874 108.005 61.0352C107.875 60.7831 107.814 60.4582 107.82 60.0605ZM108.902 60.3594C108.896 60.7258 108.988 61.037 109.177 61.2929C109.369 61.5518 109.637 61.7493 109.981 61.8856C110.325 62.0248 110.728 62.0981 111.188 62.1056C111.642 62.1129 112.041 62.0541 112.384 61.9289C112.727 61.8038 112.996 61.6164 113.19 61.3667C113.385 61.117 113.485 60.8061 113.491 60.4339C113.497 60.0505 113.403 59.7293 113.208 59.4704C113.014 59.2115 112.745 59.014 112.404 58.8777C112.062 58.7443 111.675 58.6741 111.244 58.6671C110.806 58.66 110.412 58.7189 110.06 58.8439C109.709 58.9689 109.429 59.1576 109.22 59.4099C109.014 59.6651 108.908 59.9816 108.902 60.3594Z" fill="white"/>
<path d="M113.502 43.8051L105.262 46.6808L104.843 45.4777L113.083 42.602L113.502 43.8051Z" fill="white"/>
<path d="M110.838 37.5526L103.02 41.4299L102.454 40.2882L110.273 36.4109L110.838 37.5526Z" fill="white"/>
<path d="M96.4235 31.7972C96.0408 31.3175 95.8167 30.8112 95.7513 30.2781C95.6858 29.7451 95.7718 29.222 96.0093 28.7088C96.2467 28.1957 96.6296 27.7281 97.158 27.3062C97.6886 26.8826 98.2314 26.6109 98.7865 26.4913C99.3416 26.3716 99.8716 26.4028 100.377 26.5848C100.882 26.7669 101.326 27.0977 101.708 27.5774C102.091 28.0571 102.315 28.5634 102.381 29.0964C102.446 29.6295 102.359 30.1534 102.119 30.6684C101.88 31.1833 101.494 31.6526 100.964 32.0763C100.435 32.4982 99.8948 32.7681 99.342 32.886C98.7891 33.0039 98.2602 32.9718 97.7552 32.7898C97.2501 32.6077 96.8062 32.2769 96.4235 31.7972ZM97.262 31.1331C97.5101 31.444 97.7977 31.636 98.125 31.7092C98.4523 31.7823 98.7915 31.7587 99.1425 31.6384C99.4953 31.5203 99.836 31.33 100.165 31.0677C100.491 30.8071 100.751 30.5178 100.944 30.1998C101.141 29.8823 101.242 29.5549 101.245 29.2177C101.249 28.8804 101.126 28.5564 100.878 28.2455C100.629 27.9323 100.338 27.739 100.007 27.6654C99.6773 27.5941 99.335 27.6183 98.98 27.7382C98.629 27.8585 98.2903 28.049 97.964 28.3096C97.6354 28.5719 97.3736 28.861 97.1785 29.1767C96.9851 29.4947 96.8878 29.8214 96.8866 30.1569C96.887 30.4946 97.0122 30.82 97.262 31.1331Z" fill="white"/>
<path d="M87.5345 23.7987L91.4938 18.5865L92.4742 19.3318L91.8452 20.1598L91.8995 20.201C92.2076 19.9927 92.5425 19.8994 92.9042 19.921C93.2699 19.9421 93.6054 20.0687 93.9108 20.3008C93.9741 20.3489 94.047 20.4079 94.1295 20.4778C94.2143 20.5494 94.2789 20.6075 94.3235 20.6521L93.5863 21.6226C93.5542 21.5803 93.4913 21.5129 93.3976 21.4202C93.3056 21.3253 93.2076 21.2383 93.1035 21.1592C92.8638 20.9769 92.6114 20.8654 92.3464 20.8245C92.0853 20.783 91.8326 20.8104 91.5883 20.9066C91.3457 21.0005 91.1385 21.1606 90.9666 21.3868L88.5488 24.5698L87.5345 23.7987Z" fill="white"/>
<path d="M78.6269 19.3711C78.0462 19.1178 77.6036 18.7682 77.299 18.3223C76.9981 17.8749 76.8373 17.3693 76.8166 16.8055C76.7958 16.2416 76.9165 15.6589 77.1787 15.0573C77.4443 14.4479 77.7933 13.9601 78.2257 13.5939C78.6591 13.2251 79.1415 13 79.6728 12.9187C80.204 12.8374 80.7522 12.92 81.3173 13.1665C81.773 13.3653 82.1423 13.6271 82.4253 13.952C82.7093 14.2743 82.8949 14.6342 82.982 15.0317C83.0716 15.4303 83.0493 15.8406 82.9151 16.2624L81.7784 15.7666C81.8385 15.4581 81.8009 15.1534 81.6655 14.8526C81.5327 14.5529 81.2801 14.3219 80.9077 14.1594C80.5822 14.0174 80.2596 13.979 79.94 14.0441C79.624 14.1078 79.3297 14.2676 79.0569 14.5237C78.7853 14.7771 78.5564 15.1174 78.3702 15.5445C78.1795 15.982 78.0814 16.3886 78.0757 16.7643C78.07 17.1399 78.1502 17.4678 78.3163 17.7479C78.485 18.0292 78.7348 18.2419 79.0655 18.3862C79.2868 18.4827 79.5049 18.5298 79.7198 18.5275C79.9384 18.5236 80.1423 18.4716 80.3317 18.3713C80.5237 18.2722 80.6915 18.1253 80.8352 17.9308L81.9718 18.4266C81.761 18.7964 81.4837 19.0877 81.14 19.3004C80.7963 19.5131 80.4093 19.6295 79.9791 19.6495C79.5515 19.6706 79.1008 19.5778 78.6269 19.3711Z" fill="white"/>
<path d="M69.4525 11.7612L68.2806 11.8091C68.2526 11.6562 68.1954 11.5066 68.1091 11.3602C68.0256 11.2142 67.9023 11.0871 67.7392 10.979C67.5761 10.871 67.3636 10.7992 67.1018 10.7638C66.7442 10.7155 66.435 10.7554 66.174 10.8835C65.9134 11.0088 65.7661 11.1967 65.7323 11.4473C65.703 11.664 65.7596 11.8494 65.9022 12.0035C66.0448 12.1575 66.2892 12.3009 66.6353 12.4337L67.6337 12.8096C68.2119 13.0282 68.628 13.3009 68.882 13.6277C69.136 13.9544 69.232 14.3473 69.17 14.8062C69.1175 15.1947 68.9581 15.5257 68.6918 15.7993C68.4286 16.0705 68.0856 16.2649 67.6626 16.3826C67.2425 16.5006 66.7706 16.5243 66.2469 16.4534C65.5206 16.3552 64.9489 16.1202 64.5318 15.7485C64.1152 15.3739 63.8936 14.8924 63.867 14.304L65.1125 14.2833C65.1456 14.6117 65.2693 14.8735 65.4837 15.0688C65.6985 15.2612 65.9959 15.3832 66.376 15.4346C66.7898 15.4905 67.1322 15.4494 67.4032 15.3112C67.6745 15.1701 67.8271 14.9743 67.861 14.7238C67.8884 14.521 67.8354 14.3404 67.702 14.1819C67.5714 14.0238 67.3561 13.8886 67.0559 13.7763L65.9905 13.3871C65.4038 13.1673 64.9859 12.8872 64.7366 12.5467C64.4901 12.2067 64.3981 11.8058 64.4605 11.3441C64.5122 10.9612 64.6645 10.6406 64.9173 10.3824C65.17 10.1242 65.4959 9.94034 65.8948 9.83088C66.2941 9.71861 66.7373 9.69541 67.2243 9.76128C67.9253 9.85608 68.4566 10.0827 68.8181 10.4412C69.18 10.7969 69.3914 11.2369 69.4525 11.7612Z" fill="white"/>
</svg>
