<svg width="91" height="91" viewBox="0 0 91 91" fill="none" xmlns="http://www.w3.org/2000/svg">
<g clip-path="url(#clip0_185_652)">
<path d="M21.4297 24.7333C21.1965 27.1304 23.3336 29.1126 25.7093 28.7027L56.8082 23.3365C59.2402 22.9168 60.9018 25.757 59.3101 27.6257C54.9599 32.7333 49.0245 39.5622 44.2466 44.5481C37.9593 51.1086 28.5796 59.7954 23.8864 64.0857C22.3537 65.4869 22.4058 67.9277 24.0021 69.2989C25.569 70.645 27.9374 70.3699 29.115 68.706C32.7591 63.5558 40.2343 53.1112 45.9075 45.9748C50.2066 40.5671 56.1259 33.719 60.5558 28.6804C62.1719 26.8425 65.2156 28.0624 65.1677 30.5227L64.5542 62.0696C64.5075 64.4801 66.7894 66.2937 69.1238 65.7015C71.0189 65.2207 72.1688 63.32 71.7211 61.4082L67.8585 44.9098C66.7652 40.2399 66.2986 35.4538 66.4708 30.6778L66.7684 22.2874C66.8076 21.1815 65.8008 20.3156 64.7132 20.52L56.4529 22.0726C51.7575 22.9633 46.9557 23.2239 42.1744 22.8477L25.2821 21.5181C23.3247 21.3639 21.6192 22.7875 21.4297 24.7333Z" fill="black"/>
</g>
<defs>
<clipPath id="clip0_185_652">
<rect width="64.1765" height="64.1765" fill="white" transform="translate(0 48.6816) rotate(-49.3381)"/>
</clipPath>
</defs>
</svg>
